<svg width="40" height="40" viewBox="0 0 40 40" fill="none" xmlns="http://www.w3.org/2000/svg">
<rect x="2" y="2" width="36" height="36" rx="5" fill="#AEAEAE"/>
<path d="M24.4209 16.9414C24.4791 16.9882 24.4791 16.9882 24.5384 17.036C24.5784 17.0667 24.6183 17.0974 24.6593 17.129C25.1485 17.5301 25.5092 18.0926 25.7527 18.673C25.7735 18.7181 25.7941 18.7633 25.8154 18.8099C25.974 19.2196 25.9844 19.6136 25.987 20.0491C25.9875 20.1066 25.9881 20.164 25.9886 20.2232C25.9773 21.2838 25.5382 22.2522 24.786 22.9915C24.0119 23.7214 22.9806 24.0983 21.9239 24.0834C21.1586 24.0546 20.5576 23.8082 19.8969 23.4381C19.3751 23.1474 18.7921 23.0683 18.203 23.1955C17.5755 23.4044 17.1038 23.7926 16.7996 24.3786C16.6412 24.7268 16.5223 25.0808 16.4181 25.4483C16.4017 25.506 16.4017 25.506 16.385 25.5648C15.9281 27.265 16.3002 29.1007 17.1473 30.6065C17.5828 31.3474 18.1578 31.9874 18.8225 32.5291C18.9633 32.6518 18.9947 32.7157 19.0248 32.9035C18.9895 33.123 18.9535 33.2082 18.7839 33.3523C18.5599 33.4309 18.4484 33.4434 18.231 33.3476C16.2917 32.1791 14.9335 30.0575 14.3492 27.9135C14.3337 27.8592 14.3337 27.8592 14.3178 27.8037C13.6618 25.5144 14.0588 22.9889 15.1647 20.9049C15.6006 20.1213 16.1564 19.4221 16.7778 18.7786C16.8205 18.7331 16.8632 18.6876 16.9073 18.6408C17.9766 17.5298 19.4716 16.7192 20.9485 16.2968C20.9844 16.286 21.0204 16.2752 21.0574 16.264C22.2017 15.9759 23.4843 16.2318 24.4209 16.9414Z" fill="#101116"/>
<path d="M24.5386 7.47864C25.3261 8.15496 25.8937 9.06547 25.9764 10.1185C26.0072 10.829 26.0096 11.4731 25.7001 12.1254C25.6733 12.1841 25.6465 12.2427 25.6188 12.3032C25.0662 13.4165 24.2074 14.0186 23.0562 14.4067C21.8485 14.7361 20.7107 14.3558 19.6481 13.7955C19.1605 13.5416 18.6476 13.5405 18.1208 13.6831C17.5461 13.88 17.1186 14.2307 16.8307 14.7656C16.6602 15.132 16.5221 15.487 16.4545 15.8876C16.3682 16.2706 16.089 16.4654 15.8014 16.7042C15.2858 17.1452 14.8585 17.77 14.5222 18.3568C14.5 18.3914 14.4778 18.4261 14.4549 18.4618C14.4201 18.4618 14.3852 18.4618 14.3493 18.4618C14.3061 18.244 14.2633 18.0262 14.2207 17.8084C14.2085 17.7473 14.1964 17.6862 14.1839 17.6233C13.787 15.5869 14.0983 13.4966 15.0357 11.6502C15.056 11.6095 15.0763 11.5689 15.0973 11.5271C16.2312 9.29189 18.2722 7.64268 20.6351 6.85162C20.757 6.81341 20.879 6.77589 21.0014 6.73944C21.0414 6.72641 21.0814 6.71339 21.1227 6.70004C22.2721 6.37698 23.6178 6.76224 24.5386 7.47864Z" fill="#101116"/>
</svg>
