
<svg width="36" height="36" viewBox="0 0 36 36" fill="none" xmlns="http://www.w3.org/2000/svg">
<g clip-path="url(#clip0_165_1274)">
<path d="M18 34.7586C27.2555 34.7586 34.7586 27.2555 34.7586 18C34.7586 8.74442 27.2555 1.24133 18 1.24133C8.74448 1.24133 1.24139 8.74442 1.24139 18C1.24139 27.2555 8.74448 34.7586 18 34.7586Z" stroke="#AEAEAE" stroke-width="2.48276"/>
<path fill-rule="evenodd" clip-rule="evenodd" d="M29.1724 18.0001C29.1724 24.1704 24.1704 29.1725 18 29.1725C16.2163 29.1725 14.5303 28.7545 13.0345 28.0111V33.2069L6.82758 29.4828V18.0001V17.6897H6.8318C6.99619 11.6628 11.9334 6.82764 18 6.82764C24.1704 6.82764 29.1724 11.8297 29.1724 18.0001Z" fill="#AEAEAE"/>
</g>
<defs>
<clipPath id="clip0_165_1274">
<rect width="36" height="36" fill="white"/>
</clipPath>
</defs>
</svg>
