
<svg width="31" height="35" viewBox="0 0 31 35" fill="none" xmlns="http://www.w3.org/2000/svg">
<path d="M25.3251 33.5958C23.4198 35.4427 21.3395 35.1511 19.337 34.2762C17.2178 33.3819 15.2736 33.343 13.0378 34.2762C10.2381 35.4816 8.76052 35.1317 7.08851 33.5958C-2.39918 23.8164 -0.999356 8.92387 9.77151 8.3795C12.3962 8.51559 14.2237 9.8182 15.7596 9.93486C18.0538 9.46825 20.2507 8.12675 22.7004 8.30173C25.6362 8.53503 27.8526 9.70155 29.3107 11.8013C23.2448 15.4369 24.6835 23.4276 30.2439 25.6634C29.1357 28.5797 27.697 31.4766 25.3057 33.6152L25.3251 33.5958ZM15.5652 8.26285C15.2736 3.92728 18.7926 0.349956 22.8365 0C23.4003 5.01603 18.2871 8.7489 15.5652 8.26285Z" fill="#AEAEAE"/>
</svg>
