<svg width="25" height="24" viewBox="0 0 25 24" fill="none" xmlns="http://www.w3.org/2000/svg">
<path fill-rule="evenodd" clip-rule="evenodd" d="M12.3334 4.15039C11.1424 4.15039 9.75337 4.17839 8.39937 4.21639L8.34437 4.21839C6.96637 4.25739 5.85437 4.28839 4.97837 4.43339C4.06537 4.58439 3.30737 4.87339 2.70137 5.49639C2.09337 6.12139 1.82837 6.89439 1.70337 7.81939C1.58337 8.70939 1.58337 9.83739 1.58337 11.2394V12.7634C1.58337 14.1634 1.58337 15.2914 1.70337 16.1824C1.82737 17.1074 2.09337 17.8804 2.70137 18.5054C3.30737 19.1294 4.06537 19.4174 4.97837 19.5684C5.85437 19.7134 6.96637 19.7444 8.34437 19.7834L8.39937 19.7854C9.75437 19.8234 11.1424 19.8514 12.3334 19.8514C13.5244 19.8514 14.9134 19.8234 16.2674 19.7854L16.3224 19.7834C17.7004 19.7444 18.8124 19.7134 19.6884 19.5684C20.6014 19.4174 21.3594 19.1284 21.9654 18.5054C22.5734 17.8804 22.8394 17.1074 22.9634 16.1824C23.0834 15.2924 23.0834 14.1644 23.0834 12.7624V11.2384C23.0834 9.83739 23.0834 8.70939 22.9634 7.81939C22.8394 6.89439 22.5734 6.12139 21.9654 5.49639C21.3594 4.87239 20.6014 4.58439 19.6884 4.43339C18.8124 4.28839 17.7004 4.25739 16.3214 4.21839L16.2674 4.21639C14.9564 4.1766 13.6449 4.1546 12.3334 4.15039ZM11.2054 14.6514C11.0913 14.7165 10.9622 14.7506 10.8308 14.7501C10.6995 14.7497 10.5706 14.7148 10.457 14.6489C10.3434 14.5829 10.2491 14.4884 10.1835 14.3746C10.1179 14.2608 10.0834 14.1317 10.0834 14.0004V10.0004C10.0834 9.86905 10.1179 9.74003 10.1835 9.62622C10.2491 9.51242 10.3434 9.41783 10.457 9.35192C10.5706 9.28601 10.6995 9.25108 10.8308 9.25064C10.9622 9.25019 11.0913 9.28425 11.2054 9.34939L14.7054 11.3494C14.8201 11.415 14.9154 11.5098 14.9817 11.6241C15.048 11.7384 15.083 11.8682 15.083 12.0004C15.083 12.1325 15.048 12.2624 14.9817 12.3767C14.9154 12.491 14.8201 12.5858 14.7054 12.6514L11.2054 14.6514Z" fill="#F3EFEB"/>
</svg>
