
<svg width="32" height="35" viewBox="0 0 32 35" fill="none" xmlns="http://www.w3.org/2000/svg">
<path d="M19.5777 19.7556C19.8574 19.5287 20.0896 19.2489 20.2611 18.9322C20.4326 18.6155 20.5401 18.2682 20.5773 17.91C20.6146 17.5518 20.5809 17.1897 20.4782 16.8445C20.3755 16.4993 20.2058 16.1778 19.9787 15.8982C19.8584 15.7518 19.7241 15.6175 19.5777 15.4971C17.6526 13.8981 15.5405 12.5386 13.2878 11.4487C11.7331 10.7049 9.99768 11.7404 9.74975 13.5108C9.36765 16.1683 9.29912 18.8614 9.54558 21.5348C9.71475 23.3286 11.4298 24.399 13.0048 23.7107C15.3624 22.6971 17.5727 21.3707 19.5762 19.7672L19.5777 19.7556ZM29.6871 11.8804C31.1182 13.4484 31.9134 15.4937 31.9172 17.6166C31.9209 19.7395 31.1331 21.7876 29.7075 23.3607C24.6145 28.9819 17.9608 32.9566 10.5971 34.7768C8.71371 35.2481 6.72079 34.9667 5.04152 33.9925C3.36225 33.0182 2.12888 31.4277 1.60331 29.5587C-0.619244 21.9752 -0.292569 13.4 1.85123 5.78003C2.97709 1.77973 6.74114 -0.733038 10.616 0.191567C17.7985 1.90369 24.5361 6.31088 29.6871 11.8775V11.8804Z" fill="#AEAEAE"/>
</svg>
