
<svg width="34" height="34" viewBox="0 0 34 34" fill="none" xmlns="http://www.w3.org/2000/svg">
<path fill-rule="evenodd" clip-rule="evenodd" d="M17 0.666626C18.425 0.666626 19.8866 0.703293 21.3033 0.763293L22.9766 0.843293L24.5783 0.938293L26.0783 1.03996L27.4483 1.14663C28.9353 1.25978 30.3346 1.89402 31.3999 2.93763C32.4652 3.98124 33.128 5.36728 33.2716 6.85163L33.3383 7.55996L33.4633 9.07662C33.58 10.6483 33.6666 12.3616 33.6666 14C33.6666 15.6383 33.58 17.3516 33.4633 18.9233L33.3383 20.44L33.2716 21.1483C33.1279 22.6329 32.4649 24.0191 31.3993 25.0628C30.3337 26.1064 28.9339 26.7405 27.4466 26.8533L26.08 26.9583L24.58 27.0616L22.9766 27.1566L21.3033 27.2366C19.8697 27.2987 18.4349 27.331 17 27.3333C15.565 27.331 14.1303 27.2987 12.6966 27.2366L11.0233 27.1566L9.42165 27.0616L7.92165 26.9583L6.55165 26.8533C5.06467 26.7401 3.66531 26.1059 2.60005 25.0623C1.53479 24.0187 0.871964 22.6326 0.728313 21.1483L0.661646 20.44L0.536646 18.9233C0.409701 17.2852 0.341879 15.643 0.333313 14C0.333313 12.3616 0.41998 10.6483 0.536646 9.07662L0.661646 7.55996L0.728313 6.85163C0.871908 5.36755 1.5345 3.98171 2.59942 2.93814C3.66434 1.89456 5.0633 1.26015 6.54998 1.14663L7.91831 1.03996L9.41831 0.938293L11.0216 0.843293L12.695 0.763293C14.1292 0.701171 15.5645 0.668942 17 0.666626ZM13.6666 9.95829V18.0416C13.6666 18.8116 14.5 19.2916 15.1666 18.9083L22.1666 14.8666C22.319 14.7789 22.4455 14.6527 22.5335 14.5005C22.6214 14.3484 22.6678 14.1757 22.6678 14C22.6678 13.8242 22.6214 13.6516 22.5335 13.4994C22.4455 13.3473 22.319 13.221 22.1666 13.1333L15.1666 9.09329C15.0146 9.0055 14.8421 8.95929 14.6665 8.95932C14.4909 8.95935 14.3184 9.00561 14.1664 9.09345C14.0143 9.1813 13.8881 9.30763 13.8004 9.45973C13.7127 9.61184 13.6665 9.78437 13.6666 9.95996V9.95829Z" fill="#AEAEAE"/>
</svg>
