
<svg width="24" height="24" viewBox="0 0 24 24" fill="none" xmlns="http://www.w3.org/2000/svg">
<g clip-path="url(#clip0_165_1431)">
<path d="M18 12C18 12.55 18.45 13 19 13H21C21.55 13 22 12.55 22 12C22 11.45 21.55 11 21 11H19C18.45 11 18 11.45 18 12Z" fill="#F3EFEB"/>
<path d="M16.59 16.8199C16.26 17.2599 16.35 17.8699 16.79 18.1899C17.32 18.5799 17.88 18.9999 18.41 19.3999C18.85 19.7299 19.47 19.6399 19.79 19.1999C19.79 19.1899 19.8 19.1899 19.8 19.1799C20.13 18.7399 20.04 18.1199 19.6 17.7999C19.07 17.3999 18.51 16.9799 17.99 16.5899C17.55 16.2599 16.93 16.3599 16.6 16.7999C16.6 16.8099 16.59 16.8199 16.59 16.8199Z" fill="#F3EFEB"/>
<path d="M19.8099 4.81004C19.8099 4.80004 19.7999 4.80004 19.7999 4.79004C19.4699 4.35004 18.8499 4.26005 18.4199 4.59005C17.8899 4.99005 17.3199 5.41005 16.7999 5.81005C16.3599 6.14005 16.2799 6.76005 16.6099 7.19005C16.6099 7.20005 16.6199 7.20005 16.6199 7.21005C16.9499 7.65005 17.5599 7.74005 17.9999 7.41005C18.5299 7.02005 19.0899 6.59005 19.6199 6.19005C20.0499 5.87005 20.1299 5.25005 19.8099 4.81004Z" fill="#F3EFEB"/>
<path d="M8 9H4C2.9 9 2 9.9 2 11V13C2 14.1 2.9 15 4 15H5V18C5 18.55 5.45 19 6 19C6.55 19 7 18.55 7 18V15H8L13 18V6L8 9Z" fill="#F3EFEB"/>
<path d="M15.5 11.9999C15.5 10.6699 14.92 9.4699 14 8.6499V15.3399C14.92 14.5299 15.5 13.3299 15.5 11.9999Z" fill="#F3EFEB"/>
</g>
<defs>
<clipPath id="clip0_165_1431">
<rect width="24" height="24" fill="white"/>
</clipPath>
</defs>
</svg>
