<svg width="40" height="40" viewBox="0 0 40 40" fill="none" xmlns="http://www.w3.org/2000/svg">
<path d="M19.96 0C19.7671 0.00387726 19.5743 0.0105446 19.3817 0.02C18.7528 0.06237 18.1253 0.123508 17.5 0.203333C12.0167 0.95 7.34 3.70333 4.17833 7.80333C3.39896 8.81378 2.71807 9.89649 2.145 11.0367C2.0456 11.2339 1.94948 11.4329 1.85667 11.6333C1.70333 11.9644 1.55833 12.2994 1.42167 12.6383C1.24641 13.0704 1.08631 13.5084 0.941667 13.9517L0.866667 14.19C0.295656 16.066 0.00364276 18.0157 0 19.9767L0 20.0383C0.0101539 25.336 2.12177 30.4133 5.8714 34.1557C9.62103 37.8981 14.7023 40 20 40C24.9552 40.0001 29.7341 38.1606 33.4104 34.8381C37.0867 31.5156 39.3987 26.9466 39.8983 22.0167L39.9033 21.9767C39.9672 21.3297 39.9994 20.6801 40 20.03V19.95C39.9911 17.5689 39.5571 15.2085 38.7183 12.98C38.6522 12.8048 38.5827 12.6309 38.51 12.4583C38.391 12.1738 38.2654 11.8921 38.1333 11.6133C35.655 6.36333 30.9683 2.29667 25.3033 0.77C24.0367 0.423333 22.0067 0.12 20.615 0.03C20.4235 0.0172414 20.2318 0.00724038 20.04 0L19.96 0ZM23.8283 4.8C24.105 4.80167 24.4567 4.89333 24.9533 5.065C27.9233 6.08333 31.2417 8.66 33.0467 11.3383C34.3 13.2017 35.275 15.385 35.275 16.3167C35.275 16.9133 34.6917 17.4517 34.0667 17.4517C33.4833 17.4517 32.8867 16.9433 32.7267 16.3183C32.51 15.4433 31.3433 13.2317 30.485 12.095C28.9567 10.0867 26.5983 8.325 24.285 7.46667C22.6533 6.855 22.2317 6.14167 22.9883 5.24C23.2417 4.93667 23.4717 4.795 23.8283 4.79833V4.8ZM17.3533 7.13333C17.7878 7.13556 18.1767 7.22722 18.52 7.40833C20.7033 8.515 20.5867 11.6883 18.3167 12.5617C15.5067 13.6233 14.095 14.76 13.1767 16.6233C11.255 20.5233 12.8267 25.1233 16.715 26.9867C19.5683 28.355 22.8283 27.875 25.0983 25.7783C26.1317 24.8183 26.7 23.9883 27.21 22.6483C27.9233 20.7717 28.7383 20.0733 30.1933 20.0733C32.0583 20.0733 33.3383 21.645 32.96 23.45C32.1883 27 29.205 30.5667 25.5933 32.2417C23.6 33.1583 22.5083 33.3917 19.99 33.3917C17.515 33.3917 16.4383 33.1733 14.5167 32.3C9.27667 29.9267 6.05833 24.25 6.72833 18.6167C7.03673 16.0672 8.06413 13.6581 9.69054 11.6708C11.317 9.68345 13.4752 8.19987 15.9133 7.39333C16.3759 7.22868 16.8624 7.14086 17.3533 7.13333ZM23.125 8.73333C23.4867 8.74 23.9567 8.90833 24.6483 9.24333C27.4583 10.5817 29.7867 13.0417 31.0383 15.9683C31.505 17.0883 31.2717 17.8167 30.355 18.1067C29.655 18.3117 29.1883 17.9333 28.5783 16.6667C27.4433 14.265 25.8283 12.605 23.5567 11.4833C22.2317 10.8433 22.0717 10.6983 21.94 10.0717C21.8817 9.73833 21.94 9.54833 22.2467 9.185C22.5083 8.87833 22.7633 8.725 23.125 8.73333ZM22.4617 12.805C22.845 12.8033 23.2883 12.985 23.8617 13.3617C25.4633 14.41 27.2683 16.6667 27.2683 17.6117C27.2683 18.0933 26.8017 18.705 26.3367 18.82C25.71 18.9817 25.26 18.675 24.6033 17.6417C23.8917 16.55 23.0617 15.72 22.2033 15.2833C21.46 14.905 21.2417 14.6133 21.2417 14.0017C21.23 13.8355 21.2615 13.6692 21.333 13.5188C21.4046 13.3685 21.5138 13.2391 21.65 13.1433C21.8689 12.9333 22.1584 12.8126 22.4617 12.805Z" fill="#AEAEAE"/>
</svg>
